<svg width="32" height="32" viewBox="0 0 32 32" fill="none" xmlns="http://www.w3.org/2000/svg">
<path fill-rule="evenodd" clip-rule="evenodd" d="M6 2C3.79086 2 2 3.79086 2 6V26C2 28.2091 3.79086 30 6 30H26C28.2091 30 30 28.2091 30 26V8.53333V6C30 3.79086 28.2091 2 26 2H21.25H6ZM7 16C7 11.0374 11.0374 7 16 7C20.9626 7 25 11.0374 25 16C25 20.9626 20.9626 25 16 25C11.0374 25 7 20.9626 7 16ZM23.6865 15.9391C23.6696 14.1246 23.0212 12.4585 21.9505 11.1504C21.7885 11.3696 20.5003 13.021 17.658 14.1815C17.9278 14.7338 18.1248 15.1821 18.3336 15.6916C20.8915 15.37 23.433 15.8855 23.6865 15.9391ZM17.0669 13.0383C19.8005 12.0137 20.9577 10.4584 21.0959 10.2614C19.2054 8.58411 16.6364 7.95037 14.1985 8.53802C14.411 8.82254 15.8072 10.7239 17.0669 13.0383ZM15.5819 13.5006C14.3081 11.2364 12.9344 9.33271 12.7317 9.05476C10.5811 10.0692 8.97347 12.0518 8.47498 14.4373C8.8188 14.4418 11.986 14.4556 15.5819 13.5006ZM8.31654 15.7768C8.31418 15.8549 8.31262 15.9331 8.31262 16.0117C8.31262 17.9862 9.06107 19.7889 10.2889 21.1517C11.535 19.0186 14.0606 16.7704 16.8404 15.9874C16.6475 15.5507 16.4372 15.1135 16.2172 14.6828C12.3782 15.8317 8.65288 15.7837 8.31654 15.7768ZM17.3629 17.2585C14.2637 18.3158 12.0844 20.4348 11.2814 22.0763C13.5587 23.8522 16.531 24.141 19.0028 23.0882C18.8885 22.4137 18.4422 20.0632 17.3629 17.2585ZM18.8018 16.9033C19.8073 19.6663 20.2164 21.9167 20.2952 22.3844C22.0198 21.2182 23.2475 19.3709 23.5902 17.2319C23.3272 17.149 21.2107 16.5177 18.8018 16.9033Z" fill="white"/>
</svg>
