<svg width="32" height="32" viewBox="0 0 32 32" fill="none" xmlns="http://www.w3.org/2000/svg">
<path d="M4 8C4 5.79086 5.79086 4 8 4L20.5 4H24C26.2091 4 28 5.79086 28 8V9.6V24C28 26.2091 26.2091 28 24 28H8C5.79086 28 4 26.2091 4 24V8Z" fill="#081753"/>
<path fill-rule="evenodd" clip-rule="evenodd" d="M20 9.20001L16 11.75L20 14.3L16 16.85L20 19.4L24 16.85L20 14.3L24 11.75L20 9.20001ZM12 9.20004L8 11.75L12 14.3L8 16.85L12 19.4L16 16.85L12 14.3L16 11.75L12 9.20004ZM16 22.8L12 20.25L16 17.7L20 20.25L16 22.8Z" fill="#F4B2A5"/>
</svg>
