<svg width="32" height="32" viewBox="0 0 32 32" fill="none" xmlns="http://www.w3.org/2000/svg">
<path fill-rule="evenodd" clip-rule="evenodd" d="M8 3C6.89543 3 6 3.89543 6 5V27C6 28.1046 6.89543 29 8 29H24C25.1046 29 26 28.1046 26 27V11.7932C26 11.5151 25.8842 11.2496 25.6805 11.0604L17.2878 3.26721C17.1028 3.09545 16.8597 3 16.6073 3H8ZM22 16.2907L21.2535 11L16.2869 13.0004L18.2544 14.134L16.3939 17.3474L13.1733 15.4925L10 20.9739L11.778 22L13.9266 18.2889L17.1465 20.1429L20.0325 15.1571L22 16.2907Z" fill="white"/>
</svg>
