<svg width="32" height="32" viewBox="0 0 32 32" fill="none" xmlns="http://www.w3.org/2000/svg">
<path fill-rule="evenodd" clip-rule="evenodd" d="M8 3C6.89543 3 6 3.89543 6 5V27C6 28.1046 6.89543 29 8 29H24C25.1046 29 26 28.1046 26 27V11.7932C26 11.5151 25.8842 11.2496 25.6805 11.0604L17.2878 3.26721C17.1028 3.09545 16.8597 3 16.6073 3H8ZM9 13.25L12.5294 11L16.0588 13.25L12.5294 15.5L16.0588 17.7499L12.5294 19.9999L9 17.7499L12.5294 15.5L9 13.25ZM19.5882 15.5L23.1176 17.7499L19.5882 19.9999L16.0588 17.7499L19.5882 15.5ZM19.5882 15.5L23.1176 13.25L19.5882 11L16.0588 13.25L19.5882 15.5ZM12.5294 20.75L16.0588 23L19.5882 20.75L16.0588 18.5L12.5294 20.75Z" fill="white"/>
</svg>
