<svg width="32" height="32" viewBox="0 0 32 32" fill="none" xmlns="http://www.w3.org/2000/svg">
<path d="M2 6C2 3.79086 3.79086 2 6 2L21.25 2H26C28.2091 2 30 3.79086 30 6V8.53333V26C30 28.2091 28.2091 30 26 30H6C3.79086 30 2 28.2091 2 26V6Z" fill="#56CCF2"/>
<path fill-rule="evenodd" clip-rule="evenodd" d="M13.4026 13.7989C13.4026 13.5228 13.1788 13.299 12.9026 13.299H8.5C8.22386 13.299 8 13.5228 8 13.799V23.5002C8 23.7764 8.22386 24.0002 8.5 24.0002H18.2013C18.4774 24.0002 18.7013 23.7764 18.7013 23.5002V19.0975C18.7013 18.8213 18.4774 18.5975 18.2013 18.5975H13.9026C13.6265 18.5975 13.4026 18.3736 13.4026 18.0975V13.7989Z" fill="white"/>
<rect x="13.4026" y="7.99994" width="5.29868" height="5.29868" rx="0.5" fill="white"/>
<rect x="18.7013" y="13.299" width="5.29868" height="5.29868" rx="0.5" fill="white"/>
<rect x="21.4026" y="7.99994" width="2.59739" height="2.59739" rx="0.5" fill="white"/>
<rect x="21.4026" y="21.4026" width="2.59739" height="2.59739" rx="0.5" fill="white"/>
<rect x="8" y="8" width="2.59739" height="2.59739" rx="0.5" fill="white"/>
</svg>
