<svg width="32" height="32" viewBox="0 0 32 32" fill="none" xmlns="http://www.w3.org/2000/svg">
<path fill-rule="evenodd" clip-rule="evenodd" d="M5 6C3.89543 6 3 6.89543 3 8V25C3 26.1046 3.89543 27 5 27H27C28.1046 27 29 26.1046 29 25V11.4426C29 10.3381 28.1046 9.44262 27 9.44262H17.1752C16.4497 9.44262 15.7811 9.04977 15.428 8.41603L14.6539 7.0266C14.3008 6.39285 13.6323 6 12.9068 6H5ZM19.366 15.2589V16.4337C20.281 16.5095 21 17.2421 21 18.1516V22.2695C21 23.2295 20.2026 24 19.2092 24H12.7908C11.7974 24 11 23.2295 11 22.2695V18.1516C11 17.2421 11.7059 16.5095 12.6209 16.4337V15.2589C12.6209 13.4653 14.1373 12 15.9935 12C17.8497 12 19.366 13.4653 19.366 15.2589ZM16.5817 21.9537C16.7124 21.9537 16.8039 21.84 16.7778 21.7137L16.3725 20.2232C16.6993 20.0716 16.9346 19.7558 16.9346 19.3895C16.9346 18.8842 16.5033 18.4674 15.9804 18.4674C15.4575 18.4674 15.0261 18.8842 15.0261 19.3895C15.0261 19.7684 15.2614 20.0842 15.5882 20.2232L15.1961 21.7137C15.1699 21.84 15.2614 21.9537 15.3922 21.9537H16.5817ZM14.3333 16.4211H17.6536V15.2716C17.6536 14.3874 16.9085 13.6674 15.9935 13.6674C15.0784 13.6674 14.3333 14.3874 14.3333 15.2716V16.4211Z" fill="#D7D7D7"/>
</svg>
