<svg width="32" height="32" viewBox="0 0 32 32" fill="none" xmlns="http://www.w3.org/2000/svg">
<path fill-rule="evenodd" clip-rule="evenodd" d="M6 2C3.79086 2 2 3.79086 2 6V26C2 28.2091 3.79086 30 6 30H26C28.2091 30 30 28.2091 30 26V8.53333V6C30 3.79086 28.2091 2 26 2H21.25H6ZM9.69533 11.7915C9.842 11.9058 9.91733 12.0738 9.89733 12.2441V18.3685C9.94067 18.589 9.86067 18.8148 9.68067 18.9759L8 20.7414V20.9746H12.7653V20.7414L11.0847 18.9759C10.904 18.8154 10.8187 18.5908 10.8533 18.3685V13.072L15.0367 20.9746H15.522L19.1147 13.072V19.3708C19.1147 19.5388 19.1147 19.5711 18.988 19.6808L17.6953 20.7673V21H23.97V20.7673L22.7227 19.7068C22.6127 19.634 22.558 19.5145 22.5807 19.3967V11.6038C22.558 11.4855 22.6127 11.366 22.7227 11.2932L24 10.2327V10H19.578L16.426 16.8097L12.8407 10H8.202V10.2327L9.69533 11.7915Z" fill="white"/>
</svg>
