<svg width="32" height="32" viewBox="0 0 32 32" fill="none" xmlns="http://www.w3.org/2000/svg">
<path fill-rule="evenodd" clip-rule="evenodd" d="M7 5C5.89543 5 5 5.89543 5 7V25C5 26.1046 5.89543 27 7 27H25C26.1046 27 27 26.1046 27 25V7C27 5.89543 26.1046 5 25 5H7ZM21 10.3688V19.6426C21 20.7486 19.9914 21.7299 18.883 21.7298C17.7482 21.7299 16.8256 20.7939 16.8256 19.6426C16.8256 18.4914 17.7482 17.5554 18.883 17.5554H19.9908V13.3481L14.1744 14.9135V20.9128C14.1744 22.0187 13.1658 23 12.0574 23C10.9226 23 10 22.064 10 20.9128C10 19.7615 10.9226 18.8255 12.0574 18.8255H13.1652V12.2306C13.1652 11.7954 13.4466 11.4102 13.8612 11.2779L19.696 9.41609C20.3411 9.21024 21 9.69161 21 10.3688Z" fill="#BDBDBD"/>
</svg>
