<svg width="32" height="32" viewBox="0 0 32 32" fill="none" xmlns="http://www.w3.org/2000/svg">
<path d="M2 6C2 3.79086 3.79086 2 6 2L21.25 2H26C28.2091 2 30 3.79086 30 6V8.53333V26C30 28.2091 28.2091 30 26 30H6C3.79086 30 2 28.2091 2 26V6Z" fill="#183F25"/>
<path d="M15.2947 21.2845L15.1739 21.3339C14.4521 21.5745 13.3707 21.9344 12.4308 22.3918C12.3814 22.4153 12.3351 22.4872 12.3351 22.4872C12.3097 22.5349 12.2839 22.5843 12.2636 22.6324C12.1629 22.8725 11.9992 23.2342 11.9497 23.4015L11.9038 23.5242V23.5703L11.9243 23.5959H11.9497L12.0658 23.5482C12.3351 23.4253 12.6696 23.2342 13.0089 23.067H13.0313C13.6523 22.7775 14.2699 22.4807 14.8839 22.1767C14.8839 22.1767 14.9552 22.129 15.0049 22.0573L15.341 21.3818V21.3341C15.341 21.2845 15.3154 21.2624 15.2949 21.2845H15.2947ZM12.5997 20.227C12.6491 20.1298 12.8625 19.7205 12.9135 19.6247V19.6009C14.3804 16.8343 16.1631 14.2352 18.2031 11.8524L18.2543 11.7798C18.2802 11.7551 18.2802 11.7315 18.2543 11.708C18.2288 11.6836 18.2031 11.6589 18.1827 11.6836H18.0872C16.7362 11.877 15.3664 12.1173 14.0205 12.4536C13.8739 12.5022 13.8024 12.5749 13.7767 12.597C12.7667 13.8013 11.827 15.0762 10.9346 16.3769C10.9637 16.4486 10.9637 16.5935 10.9637 16.5935C10.9637 16.5935 11.1771 18.2774 11.4927 19.5292C10.7214 21.8152 10 24.8463 10 24.8463V24.8958C10 24.9196 10.0256 24.9196 10.0459 24.9196H10.5033C10.5273 24.9196 10.5528 24.8959 10.5784 24.8719L10.5989 24.7748C11.0561 23.5242 11.5882 22.2723 12.1631 21.0678C12.3097 20.8018 12.5997 20.227 12.5997 20.227" fill="#5AC43B"/>
<path d="M18.9045 12.3582V12.2618C18.9045 12.2371 18.8786 12.2122 18.8583 12.1899C18.8328 12.1899 18.8071 12.1899 18.783 12.2122L18.7355 12.2848C16.3252 15.0526 14.3309 18.1322 12.7464 21.4299L12.6952 21.501V21.5745C12.7155 21.5968 12.7155 21.5968 12.7464 21.5968H12.7667L12.8386 21.5745C14.1844 21.0203 15.5592 20.5392 16.929 20.1299C17.0007 20.1058 17.0756 20.0582 17.1219 19.9866C17.7257 18.8316 19.1175 16.5689 19.1175 16.5689C19.1687 16.4963 19.1467 16.4241 19.1467 16.4241C19.1467 16.4241 18.9045 13.7285 18.9045 12.3582" fill="#5AC43B"/>
<path d="M21.9851 8.45945C21.6506 8.16946 21.1386 8.02535 20.3714 8.00239C19.701 7.97766 18.8786 8.1465 17.9404 8.43472C17.797 8.48435 17.6999 8.55588 17.5791 8.65054C16.6185 9.54187 15.7058 10.5049 14.8376 11.4676L14.7627 11.5393C14.7405 11.564 14.7405 11.587 14.7627 11.6117C14.7864 11.6359 14.812 11.6589 14.8376 11.6359L14.9333 11.6115C16.3559 11.2988 17.7716 11.0821 19.1687 10.9364C19.2643 10.9364 19.3614 10.9611 19.4314 11.0088C19.5084 11.0821 19.5285 11.1547 19.5285 11.2495C19.5084 12.6465 19.5543 14.0417 19.6721 15.3892V15.4854C19.6721 15.5089 19.701 15.5336 19.7212 15.5336H19.7471C19.7726 15.5336 19.793 15.5336 19.793 15.5089L19.8425 15.437C20.6355 14.3071 21.4786 13.2229 22.3927 12.1899C22.4881 12.0689 22.5139 11.9964 22.5393 11.8992C22.8243 10.1423 22.3927 8.79641 21.9851 8.45945Z" fill="#5AC43B"/>
</svg>
