<svg width="32" height="32" viewBox="0 0 32 32" fill="none" xmlns="http://www.w3.org/2000/svg">
<path fill-rule="evenodd" clip-rule="evenodd" d="M6 2C3.79086 2 2 3.79086 2 6V26C2 28.2091 3.79086 30 6 30H26C28.2091 30 30 28.2091 30 26V8.53333V6C30 3.79086 28.2091 2 26 2H21.25H6ZM11.1651 14.8551H9.98615C9.9407 14.3977 9.5799 14.1307 8.99183 14.1307C8.38956 14.1307 8.05717 14.4062 8.05717 14.7812C8.04865 15.1989 8.47195 15.3864 8.97763 15.5028L9.50036 15.6278C10.5117 15.8551 11.2418 16.3693 11.2447 17.3381C11.2418 18.4034 10.4066 19.0824 8.98615 19.0824C7.57422 19.0824 6.67365 18.4318 6.6424 17.1733H7.83274C7.87251 17.7557 8.33274 18.0511 8.97195 18.0511C9.59695 18.0511 10.0004 17.7614 10.0032 17.3352C10.0004 16.9432 9.64808 16.7614 9.01456 16.608L8.38104 16.4489C7.39808 16.2131 6.79297 15.7216 6.79581 14.8636C6.79013 13.8068 7.72479 13.1023 9.00036 13.1023C10.2958 13.1023 11.1481 13.8182 11.1651 14.8551ZM14.5806 19H13.3817L11.717 13.1818H13.0607L14.0238 17.2244H14.0721L15.1346 13.1818H16.2852L17.3448 17.233H17.396L18.359 13.1818H19.7028L18.038 19H16.8391L15.7312 15.196H15.6857L14.5806 19ZM25.2702 16.0852C25.2702 17.9034 24.1964 19 22.4237 19H20.3612V13.1818H22.4407C24.1964 13.1818 25.2702 14.2727 25.2702 16.0852ZM21.5913 14.2358V17.946H22.3725C23.4663 17.946 24.043 17.3835 24.043 16.0852C24.043 14.7926 23.4663 14.2358 22.3754 14.2358H21.5913Z" fill="white"/>
</svg>
