<svg width="32" height="32" viewBox="0 0 32 32" fill="none" xmlns="http://www.w3.org/2000/svg">
<path d="M2 6C2 3.79086 3.79086 2 6 2L21.25 2H26C28.2091 2 30 3.79086 30 6V8.53333V26C30 28.2091 28.2091 30 26 30H6C3.79086 30 2 28.2091 2 26V6Z" fill="#55ACEE"/>
<path d="M23.1507 12.489C23.1626 12.6425 23.1626 12.7951 23.1626 12.9478C23.1626 17.6182 19.4503 23 12.666 23C10.5758 23 8.63403 22.4202 7 21.4134C7.29676 21.4458 7.58254 21.4572 7.89121 21.4572C9.55179 21.4611 11.1654 20.9293 12.4718 19.9477C11.7019 19.9344 10.9555 19.6912 10.337 19.252C9.71841 18.8128 9.2585 18.1996 9.02147 17.4981C9.24954 17.5305 9.47853 17.5524 9.7185 17.5524C10.0492 17.5524 10.3816 17.5086 10.6903 17.4323C9.85476 17.2707 9.10343 16.837 8.56407 16.205C8.02472 15.5729 7.73064 14.7814 7.73183 13.9652V13.9213C8.22369 14.1836 8.79432 14.3476 9.39884 14.3695C8.89241 14.0472 8.47715 13.61 8.19011 13.0967C7.90308 12.5834 7.75319 12.01 7.75382 11.4278C7.75382 10.7717 7.93609 10.17 8.25575 9.64553C9.18281 10.7375 10.3391 11.6309 11.6496 12.2677C12.9602 12.9046 14.3958 13.2707 15.8635 13.3424C15.8067 13.0793 15.7719 12.8065 15.7719 12.5329C15.7717 12.0689 15.867 11.6094 16.0523 11.1806C16.2376 10.7519 16.5094 10.3624 16.852 10.0342C17.1946 9.70614 17.6014 9.44592 18.0492 9.26846C18.4969 9.09099 18.9768 8.99977 19.4613 9C20.5238 9 21.4828 9.42626 22.1569 10.1156C22.9829 9.9627 23.775 9.67397 24.4981 9.26225C24.2227 10.0787 23.646 10.7709 22.8759 11.2094C23.6085 11.1294 24.3244 10.9449 25 10.6621C24.4954 11.3665 23.8702 11.9841 23.1507 12.489V12.489Z" fill="white"/>
</svg>
