<svg width="32" height="32" viewBox="0 0 32 32" fill="none" xmlns="http://www.w3.org/2000/svg">
<path d="M6 5C6 3.89543 6.89543 3 8 3H16.2146C16.7194 3 17.2056 3.19091 17.5755 3.53441L25.3609 10.7637C25.7684 11.1421 26 11.6731 26 12.2293V27C26 28.1046 25.1046 29 24 29H8C6.89543 29 6 28.1046 6 27V5Z" fill="black"/>
<path fill-rule="evenodd" clip-rule="evenodd" d="M11.0416 15.8361C11.0578 15.6967 10.9966 15.5593 10.8775 15.4658L9.66413 14.1904V14H13.433L16.3461 19.5716L18.9071 14H22.5V14.1904L21.4622 15.0581C21.3728 15.1176 21.3284 15.2154 21.3468 15.3122V21.6882C21.3284 21.7846 21.3728 21.8824 21.4622 21.9419L22.4756 22.8096V23H17.3775V22.8096L18.4278 21.9206C18.5307 21.8309 18.5307 21.8044 18.5307 21.667V16.5135L15.6116 22.9792H15.2173L11.8183 16.5135V20.847C11.7902 21.0288 11.8595 21.2126 12.0063 21.3439L13.3718 22.7884V22.9792H9.5V22.7884L10.8655 21.3439C11.0118 21.2121 11.0768 21.0274 11.0416 20.847V15.8361V15.8361Z" fill="white"/>
</svg>
