<svg width="236" height="32" viewBox="0 0 236 32" fill="none" xmlns="http://www.w3.org/2000/svg">
<g filter="url(#filter0_i)">
<rect x="108" width="32" height="32" rx="2.66667" fill="#E0E0E0"/>
</g>
<path d="M124.448 20.6364L129.165 15.9192L124.448 11.202L123.276 12.3636L125.978 15.0657H118.771V16.7727H125.978L123.276 19.4697L124.448 20.6364Z" fill="black"/>
<g filter="url(#filter1_i)">
<rect x="36" width="32" height="32" rx="2.66667" fill="#E0E0E0"/>
</g>
<path d="M50.9274 20.4445H52.6345V13.2273L55.3365 15.9293L56.4981 14.7576L51.7809 10.0404L47.0537 14.7576L48.2355 15.9293L50.9274 13.2273V20.4445Z" fill="black"/>
<g filter="url(#filter2_i)">
<rect x="72" width="32" height="32" rx="2.66667" fill="#E0E0E0"/>
</g>
<path d="M88.6345 10.101H86.9274V17.3182L84.2254 14.6162L83.0638 15.7879L87.7809 20.5051L92.5082 15.7879L91.3264 14.6162L88.6345 17.3182V10.101Z" fill="black"/>
<g filter="url(#filter3_i)">
<rect width="32" height="32" rx="2.66667" fill="#E0E0E0"/>
</g>
<path d="M15.1143 20.6364L16.286 19.4647L13.584 16.7727H20.791V15.0657H13.584L16.286 12.3636L15.1143 11.202L10.3971 15.9192L15.1143 20.6364Z" fill="black"/>
<g filter="url(#filter4_i)">
<rect x="156" width="80" height="32" rx="2.66667" fill="#E0E0E0"/>
</g>
<path d="M172.181 20.899V18.3232H180.292V11.6566H175.857V13.3535H178.62V16.6263H172.181V14.0505L168.696 17.4747L172.181 20.899Z" fill="black"/>
<path d="M189.385 20H196.375V18.197H191.572V15.7273H195.996V13.9242H191.572V11.4596H196.355V9.65656H189.385V20ZM200.205 15.5152C200.21 14.5152 200.806 13.9293 201.674 13.9293C202.538 13.9293 203.058 14.4949 203.053 15.4444V20H205.205V15.0606C205.205 13.2525 204.144 12.1414 202.528 12.1414C201.376 12.1414 200.543 12.7071 200.194 13.6111H200.104V12.2424H198.053V20H200.205V15.5152ZM211.027 12.2424H209.567V10.3838H207.415V12.2424H206.355V13.8586H207.415V17.899C207.405 19.4192 208.441 20.1717 210.001 20.1061C210.557 20.0859 210.951 19.9747 211.168 19.904L210.83 18.303C210.723 18.3232 210.496 18.3737 210.294 18.3737C209.865 18.3737 209.567 18.2121 209.567 17.6162V13.8586H211.027V12.2424ZM215.88 20.1515C217.799 20.1515 219.092 19.2172 219.395 17.7778L217.405 17.6465C217.188 18.2374 216.633 18.5455 215.915 18.5455C214.84 18.5455 214.158 17.8333 214.158 16.6768V16.6717H219.441V16.0808C219.441 13.4444 217.845 12.1414 215.794 12.1414C213.511 12.1414 212.032 13.7626 212.032 16.1566C212.032 18.6162 213.491 20.1515 215.88 20.1515ZM214.158 15.3384C214.203 14.4545 214.875 13.7475 215.83 13.7475C216.764 13.7475 217.41 14.4141 217.415 15.3384H214.158ZM220.845 20H222.996V15.6111C222.996 14.6566 223.693 14 224.643 14C224.941 14 225.35 14.0505 225.552 14.1162V12.2071C225.36 12.1616 225.092 12.1313 224.875 12.1313C224.006 12.1313 223.294 12.6364 223.011 13.596H222.931V12.2424H220.845V20Z" fill="black"/>
<defs>
<filter id="filter0_i" x="108" y="0" width="32" height="32" filterUnits="userSpaceOnUse" color-interpolation-filters="sRGB">
<feFlood flood-opacity="0" result="BackgroundImageFix"/>
<feBlend mode="normal" in="SourceGraphic" in2="BackgroundImageFix" result="shape"/>
<feColorMatrix in="SourceAlpha" type="matrix" values="0 0 0 0 0 0 0 0 0 0 0 0 0 0 0 0 0 0 127 0" result="hardAlpha"/>
<feOffset dy="-2.22222"/>
<feComposite in2="hardAlpha" operator="arithmetic" k2="-1" k3="1"/>
<feColorMatrix type="matrix" values="0 0 0 0 0 0 0 0 0 0 0 0 0 0 0 0 0 0 0.3 0"/>
<feBlend mode="normal" in2="shape" result="effect1_innerShadow"/>
</filter>
<filter id="filter1_i" x="36" y="0" width="32" height="32" filterUnits="userSpaceOnUse" color-interpolation-filters="sRGB">
<feFlood flood-opacity="0" result="BackgroundImageFix"/>
<feBlend mode="normal" in="SourceGraphic" in2="BackgroundImageFix" result="shape"/>
<feColorMatrix in="SourceAlpha" type="matrix" values="0 0 0 0 0 0 0 0 0 0 0 0 0 0 0 0 0 0 127 0" result="hardAlpha"/>
<feOffset dy="-2.22222"/>
<feComposite in2="hardAlpha" operator="arithmetic" k2="-1" k3="1"/>
<feColorMatrix type="matrix" values="0 0 0 0 0 0 0 0 0 0 0 0 0 0 0 0 0 0 0.3 0"/>
<feBlend mode="normal" in2="shape" result="effect1_innerShadow"/>
</filter>
<filter id="filter2_i" x="72" y="0" width="32" height="32" filterUnits="userSpaceOnUse" color-interpolation-filters="sRGB">
<feFlood flood-opacity="0" result="BackgroundImageFix"/>
<feBlend mode="normal" in="SourceGraphic" in2="BackgroundImageFix" result="shape"/>
<feColorMatrix in="SourceAlpha" type="matrix" values="0 0 0 0 0 0 0 0 0 0 0 0 0 0 0 0 0 0 127 0" result="hardAlpha"/>
<feOffset dy="-2.22222"/>
<feComposite in2="hardAlpha" operator="arithmetic" k2="-1" k3="1"/>
<feColorMatrix type="matrix" values="0 0 0 0 0 0 0 0 0 0 0 0 0 0 0 0 0 0 0.3 0"/>
<feBlend mode="normal" in2="shape" result="effect1_innerShadow"/>
</filter>
<filter id="filter3_i" x="0" y="0" width="32" height="32" filterUnits="userSpaceOnUse" color-interpolation-filters="sRGB">
<feFlood flood-opacity="0" result="BackgroundImageFix"/>
<feBlend mode="normal" in="SourceGraphic" in2="BackgroundImageFix" result="shape"/>
<feColorMatrix in="SourceAlpha" type="matrix" values="0 0 0 0 0 0 0 0 0 0 0 0 0 0 0 0 0 0 127 0" result="hardAlpha"/>
<feOffset dy="-2.22222"/>
<feComposite in2="hardAlpha" operator="arithmetic" k2="-1" k3="1"/>
<feColorMatrix type="matrix" values="0 0 0 0 0 0 0 0 0 0 0 0 0 0 0 0 0 0 0.3 0"/>
<feBlend mode="normal" in2="shape" result="effect1_innerShadow"/>
</filter>
<filter id="filter4_i" x="156" y="0" width="80" height="32" filterUnits="userSpaceOnUse" color-interpolation-filters="sRGB">
<feFlood flood-opacity="0" result="BackgroundImageFix"/>
<feBlend mode="normal" in="SourceGraphic" in2="BackgroundImageFix" result="shape"/>
<feColorMatrix in="SourceAlpha" type="matrix" values="0 0 0 0 0 0 0 0 0 0 0 0 0 0 0 0 0 0 127 0" result="hardAlpha"/>
<feOffset dy="-2.22222"/>
<feComposite in2="hardAlpha" operator="arithmetic" k2="-1" k3="1"/>
<feColorMatrix type="matrix" values="0 0 0 0 0 0 0 0 0 0 0 0 0 0 0 0 0 0 0.3 0"/>
<feBlend mode="normal" in2="shape" result="effect1_innerShadow"/>
</filter>
</defs>
</svg>
