<svg width="32" height="32" viewBox="0 0 32 32" fill="none" xmlns="http://www.w3.org/2000/svg">
<path d="M13.5294 4C13.1396 4 12.8235 4.31602 12.8235 4.70588V8.94118C12.8235 9.33104 13.1396 9.64706 13.5294 9.64706C13.9193 9.64706 14.2353 9.33104 14.2353 8.94118V4.70588C14.2353 4.31602 13.9193 4 13.5294 4ZM7.28676 6.58088C7.10613 6.58089 6.92832 6.65262 6.79042 6.79044C6.51485 7.06612 6.51481 7.51847 6.79042 7.79412L9.28311 10.2868C9.55875 10.5624 10.0111 10.5624 10.2868 10.2868C10.5624 10.0111 10.5624 9.55871 10.2868 9.28307L7.79412 6.79044C7.65626 6.6526 7.4674 6.58088 7.28676 6.58088ZM19.7721 6.58088C19.5914 6.58088 19.4026 6.6526 19.2647 6.79044L16.7721 9.28307C16.4964 9.55871 16.4964 10.0111 16.7721 10.2868C17.0477 10.5624 17.5001 10.5624 17.7757 10.2868L20.2684 7.79412C20.544 7.51847 20.544 7.06612 20.2684 6.79044C20.1305 6.65262 19.9527 6.58089 19.7721 6.58088ZM13.5658 12.2847C12.7682 11.9953 11.9953 12.7682 12.2847 13.5658L16.7971 26.0019C17.0857 26.7974 18.1704 26.8971 18.5992 26.1676L19.6353 24.4049C19.9669 23.8408 20.7419 23.7419 21.2045 24.2045L24.0736 27.0736C24.4636 27.4636 25.0958 27.4642 25.4865 27.0749L27.0706 25.4967C27.462 25.1067 27.463 24.4732 27.0727 24.082L24.2022 21.2045C23.7405 20.7416 23.8398 19.9675 24.4035 19.6362L26.1676 18.5992C26.8971 18.1704 26.7974 17.0857 26.0019 16.7971L13.5658 12.2847ZM4.70588 12.8235C4.31602 12.8235 4 13.1396 4 13.5294C4 13.9193 4.31602 14.2353 4.70588 14.2353H8.94118C9.33104 14.2353 9.64706 13.9193 9.64706 13.5294C9.64706 13.1396 9.33104 12.8235 8.94118 12.8235H4.70588ZM9.79042 16.5625C9.60982 16.5625 9.42089 16.6342 9.28311 16.7721L6.79042 19.2647C6.51481 19.5404 6.51485 19.9927 6.79042 20.2684C7.06614 20.544 7.51844 20.544 7.79412 20.2684L10.2868 17.7757C10.5624 17.5001 10.5624 17.0477 10.2868 16.7721C10.1489 16.6342 9.97113 16.5625 9.79042 16.5625Z" fill="black"/>
</svg>
