<svg width="237" height="40" viewBox="0 0 237 40" fill="none" xmlns="http://www.w3.org/2000/svg">
<path d="M9.73864 31.3835C13.4886 31.3835 15.179 29.1534 15.9886 27.5625H16.3011V31H21.358V1.90909H16.2017V12.7898H15.9886C15.2074 11.2131 13.6023 8.89773 9.75284 8.89773C4.71023 8.89773 0.747159 12.8466 0.747159 20.1193C0.747159 27.3068 4.59659 31.3835 9.73864 31.3835ZM11.1733 27.1648C7.77841 27.1648 5.98864 24.1818 5.98864 20.0909C5.98864 16.0284 7.75 13.1165 11.1733 13.1165C14.483 13.1165 16.3011 15.858 16.3011 20.0909C16.3011 24.3239 14.4545 27.1648 11.1733 27.1648ZM36.4964 31.4261C41.5817 31.4261 45.076 28.9403 45.9851 25.1477L41.1839 24.608C40.4879 26.4545 38.7834 27.4205 36.5675 27.4205C33.2436 27.4205 31.0419 25.233 30.9993 21.4972H46.1982V19.9205C46.1982 12.2642 41.5959 8.89773 36.2266 8.89773C29.9766 8.89773 25.8999 13.4858 25.8999 20.2188C25.8999 27.0653 29.9197 31.4261 36.4964 31.4261ZM31.0135 18.0312C31.1697 15.2472 33.2294 12.9034 36.2976 12.9034C39.2521 12.9034 41.2408 15.0625 41.2692 18.0312H31.0135ZM55.6903 18.2159C55.6903 15.0625 57.6506 13.2443 60.4062 13.2443C63.1051 13.2443 64.696 14.9631 64.696 17.9034V31H69.8381V17.108C69.8381 11.8381 66.8551 8.89773 62.3239 8.89773C58.9716 8.89773 56.8409 10.4176 55.8324 12.8892H55.5767V1.90909H50.5483V31H55.6903V18.2159ZM84.5966 31.4261C90.9886 31.4261 95.0511 26.9233 95.0511 20.1761C95.0511 13.4148 90.9886 8.89773 84.5966 8.89773C78.2045 8.89773 74.142 13.4148 74.142 20.1761C74.142 26.9233 78.2045 31.4261 84.5966 31.4261ZM84.625 27.3068C81.0881 27.3068 79.3551 24.1534 79.3551 20.1619C79.3551 16.1705 81.0881 12.9744 84.625 12.9744C88.1051 12.9744 89.8381 16.1705 89.8381 20.1619C89.8381 24.1534 88.1051 27.3068 84.625 27.3068ZM119.114 31.3835C122.864 31.3835 124.554 29.1534 125.364 27.5625H125.676V31H130.733V1.90909H125.577V12.7898H125.364C124.582 11.2131 122.977 8.89773 119.128 8.89773C114.085 8.89773 110.122 12.8466 110.122 20.1193C110.122 27.3068 113.972 31.3835 119.114 31.3835ZM120.548 27.1648C117.153 27.1648 115.364 24.1818 115.364 20.0909C115.364 16.0284 117.125 13.1165 120.548 13.1165C123.858 13.1165 125.676 15.858 125.676 20.0909C125.676 24.3239 123.83 27.1648 120.548 27.1648ZM145.871 31.4261C150.957 31.4261 154.451 28.9403 155.36 25.1477L150.559 24.608C149.863 26.4545 148.158 27.4205 145.942 27.4205C142.619 27.4205 140.417 25.233 140.374 21.4972H155.573V19.9205C155.573 12.2642 150.971 8.89773 145.602 8.89773C139.352 8.89773 135.275 13.4858 135.275 20.2188C135.275 27.0653 139.295 31.4261 145.871 31.4261ZM140.388 18.0312C140.545 15.2472 142.604 12.9034 145.673 12.9034C148.627 12.9034 150.616 15.0625 150.644 18.0312H140.388ZM177.168 14.9489C176.457 11.2557 173.503 8.89773 168.389 8.89773C163.134 8.89773 159.554 11.483 159.568 15.517C159.554 18.6989 161.514 20.8011 165.705 21.6676L169.426 22.4489C171.429 22.8892 172.366 23.6989 172.366 24.9347C172.366 26.4261 170.747 27.5483 168.304 27.5483C165.946 27.5483 164.412 26.5256 163.972 24.5653L158.957 25.0483C159.597 29.054 162.963 31.4261 168.318 31.4261C173.773 31.4261 177.622 28.5994 177.636 24.4659C177.622 21.3551 175.619 19.4517 171.5 18.5568L167.778 17.7614C165.562 17.2642 164.682 16.4972 164.696 15.233C164.682 13.7557 166.315 12.733 168.46 12.733C170.832 12.733 172.082 14.0256 172.48 15.4602L177.168 14.9489ZM181.876 31H187.018V9.18182H181.876V31ZM184.462 6.08523C186.095 6.08523 187.43 4.83523 187.43 3.30114C187.43 1.75284 186.095 0.50284 184.462 0.50284C182.814 0.50284 181.479 1.75284 181.479 3.30114C181.479 4.83523 182.814 6.08523 184.462 6.08523ZM201.795 39.5511C207.69 39.5511 212.036 36.8523 212.036 31.3551V9.18182H206.965V12.7898H206.681C205.9 11.2131 204.266 8.89773 200.417 8.89773C195.374 8.89773 191.411 12.8466 191.411 20.0199C191.411 27.1364 195.374 30.6875 200.403 30.6875C204.138 30.6875 205.886 28.6847 206.681 27.0795H206.937V31.2131C206.937 34.3381 204.806 35.6591 201.88 35.6591C198.783 35.6591 197.42 34.196 196.795 33.0028L192.164 34.125C193.102 37.0938 196.241 39.5511 201.795 39.5511ZM201.837 26.6534C198.442 26.6534 196.653 24.0114 196.653 19.9915C196.653 16.0284 198.414 13.1165 201.837 13.1165C205.147 13.1165 206.965 15.858 206.965 19.9915C206.965 24.1534 205.119 26.6534 201.837 26.6534ZM222.448 18.2159C222.448 15.0625 224.352 13.2443 227.065 13.2443C229.721 13.2443 231.312 14.9915 231.312 17.9034V31H236.454V17.108C236.468 11.8807 233.485 8.89773 228.982 8.89773C225.715 8.89773 223.471 10.4602 222.477 12.8892H222.221V9.18182H217.306V31H222.448V18.2159Z" fill="black"/>
<path d="M102.583 31.3125C104.259 31.3125 105.694 29.9205 105.708 28.1875C105.694 26.483 104.259 25.0909 102.583 25.0909C100.85 25.0909 99.4439 26.483 99.4581 28.1875C99.4439 29.9205 100.85 31.3125 102.583 31.3125Z" fill="#2D9CDB"/>
</svg>
