<svg width="32" height="32" viewBox="0 0 32 32" fill="none" xmlns="http://www.w3.org/2000/svg">
<path d="M2 6C2 3.79086 3.79086 2 6 2L21.25 2H26C28.2091 2 30 3.79086 30 6V8.53333V26C30 28.2091 28.2091 30 26 30H6C3.79086 30 2 28.2091 2 26V6Z" fill="#E74D89"/>
<path d="M16 7C11.0374 7 7 11.0374 7 16C7 20.9626 11.0374 25 16 25C20.9626 25 25 20.9626 25 16C25 11.0374 20.9626 7 16 7ZM21.9505 11.1504C23.0212 12.4585 23.6696 14.1246 23.6865 15.9391C23.433 15.8855 20.8915 15.37 18.3336 15.6916C18.1248 15.1821 17.9278 14.7338 17.658 14.1815C20.5003 13.021 21.7885 11.3696 21.9505 11.1504V11.1504ZM21.0959 10.2614C20.9577 10.4584 19.8005 12.0137 17.0669 13.0383C15.8072 10.7239 14.411 8.82254 14.1985 8.53802C16.6364 7.95037 19.2054 8.58411 21.0959 10.2614V10.2614ZM12.7317 9.05476C12.9344 9.33271 14.3081 11.2364 15.5819 13.5006C11.986 14.4556 8.8188 14.4418 8.47498 14.4373C8.97347 12.0518 10.5811 10.0692 12.7317 9.05476ZM8.31262 16.0117C8.31262 15.9331 8.31418 15.8549 8.31654 15.7768C8.65288 15.7837 12.3782 15.8317 16.2172 14.6828C16.4372 15.1135 16.6475 15.5507 16.8404 15.9874C14.0606 16.7704 11.535 19.0186 10.2889 21.1517C9.06107 19.7889 8.31262 17.9862 8.31262 16.0117ZM11.2814 22.0763C12.0844 20.4348 14.2637 18.3158 17.3629 17.2585C18.4422 20.0632 18.8885 22.4137 19.0028 23.0882C16.531 24.141 13.5587 23.8522 11.2814 22.0763V22.0763ZM20.2952 22.3844C20.2164 21.9167 19.8073 19.6663 18.8018 16.9033C21.2107 16.5177 23.3272 17.149 23.5902 17.2319C23.2475 19.3709 22.0198 21.2182 20.2952 22.3844Z" fill="white"/>
</svg>
