<svg width="32" height="32" viewBox="0 0 32 32" fill="none" xmlns="http://www.w3.org/2000/svg">
<path fill-rule="evenodd" clip-rule="evenodd" d="M6 2C3.79086 2 2 3.79086 2 6V26C2 28.2091 3.79086 30 6 30H26C28.2091 30 30 28.2091 30 26V8.53333V6C30 3.79086 28.2091 2 26 2H21.25H6ZM6.66667 11.0417L11.3333 8.06668L16 11.0417L11.3333 14.0167L6.66667 11.0417ZM16 16.9917L20.6666 14.0167L16 11.0417L16 11.0417L20.6667 8.06671L25.3333 11.0417L20.6667 14.0167V14.0167L25.3333 16.9917L20.6667 19.9667L16 16.9917ZM16 16.9917L11.3333 19.9667L6.66667 16.9917L11.3333 14.0167L16 16.9917ZM11.3333 20.9584L16 23.9334L20.6667 20.9584L16 17.9834L11.3333 20.9584Z" fill="white"/>
</svg>
