<svg width="32" height="32" viewBox="0 0 32 32" fill="none" xmlns="http://www.w3.org/2000/svg">
<path d="M2 6C2 3.79086 3.79086 2 6 2L21.25 2H26C28.2091 2 30 3.79086 30 6V8.53333V26C30 28.2091 28.2091 30 26 30H6C3.79086 30 2 28.2091 2 26V6Z" fill="#081753"/>
<path fill-rule="evenodd" clip-rule="evenodd" d="M11.3333 8.06665L6.66668 11.0416L11.3333 14.0166L16 11.0416L11.3333 8.06665ZM20.6667 8.06668L16 11.0417L20.6667 14.0167L16 16.9917L11.3333 14.0167L6.66667 16.9917L11.3333 19.9667L16 16.9917L20.6667 19.9667L25.3333 16.9917L20.6667 14.0167V14.0167L25.3333 11.0417L20.6667 8.06668ZM16 23.9333L11.3333 20.9583L16 17.9833L20.6667 20.9583L16 23.9333Z" fill="#F4B2A5"/>
</svg>
