<svg width="32" height="32" viewBox="0 0 32 32" fill="none" xmlns="http://www.w3.org/2000/svg">
<path fill-rule="evenodd" clip-rule="evenodd" d="M8 4C5.79086 4 4 5.79086 4 8V24C4 26.2091 5.79086 28 8 28H24C26.2091 28 28 26.2091 28 24V9.6V8C28 5.79086 26.2091 4 24 4H20.5H8ZM16 11.75L20 9.20001L24 11.75L20 14.3L16 11.75L16 11.75ZM16 11.75L12 9.20004L8 11.75L12 14.3L8 16.85L12 19.4L16 16.85L12 14.3L16 11.75ZM20 14.3L24 16.85L20 19.4L16 16.85L20 14.3ZM12 20.25L16 22.8L20 20.25L16 17.7L12 20.25Z" fill="white"/>
</svg>
