<svg width="32" height="32" viewBox="0 0 32 32" fill="none" xmlns="http://www.w3.org/2000/svg">
<path fill-rule="evenodd" clip-rule="evenodd" d="M8 3C6.89543 3 6 3.89543 6 5V27C6 28.1046 6.89543 29 8 29H24C25.1046 29 26 28.1046 26 27V11.7932C26 11.5151 25.8842 11.2496 25.6805 11.0604L17.2878 3.26721C17.1028 3.09545 16.8597 3 16.6073 3H8ZM15.8536 5.85355C15.5386 5.53857 15 5.76165 15 6.20711V12C15 13.1046 15.8954 14 17 14H22.7929C23.2383 14 23.4614 13.4614 23.1464 13.1464L19.5 9.5L15.8536 5.85355Z" fill="#F2F2F2"/>
</svg>
