<svg width="32" height="32" viewBox="0 0 32 32" fill="none" xmlns="http://www.w3.org/2000/svg">
<path d="M6 5C6 3.89543 6.89543 3 8 3H16.6073C16.8597 3 17.1028 3.09545 17.2878 3.26721L25.6805 11.0604C25.8842 11.2496 26 11.5151 26 11.7932V27C26 28.1046 25.1046 29 24 29H8C6.89543 29 6 28.1046 6 27V5Z" fill="#ED3624"/>
<path d="M21.2535 11L22 16.2907L20.0325 15.1571L17.1465 20.1429L13.9266 18.2889L11.778 22L10 20.9739L13.1733 15.4926L16.3939 17.3474L18.2544 14.134L16.2869 13.0004L21.2535 11Z" fill="white"/>
</svg>
