<svg width="32" height="32" viewBox="0 0 32 32" fill="none" xmlns="http://www.w3.org/2000/svg">
<path d="M6 5C6 3.89543 6.89543 3 8 3H16.6073C16.8597 3 17.1028 3.09545 17.2878 3.26721L25.6805 11.0604C25.8842 11.2496 26 11.5151 26 11.7932V27C26 28.1046 25.1046 29 24 29H8C6.89543 29 6 28.1046 6 27V5Z" fill="#202E64"/>
<path fill-rule="evenodd" clip-rule="evenodd" d="M12.5294 11L9 13.25L12.5294 15.5L9 17.7499L12.5294 19.9999L16.0588 17.7499L19.5882 19.9999L23.1176 17.7499L19.5882 15.5L23.1176 13.25L19.5882 11L16.0588 13.25L12.5294 11ZM16.0588 13.25L19.5882 15.5L16.0588 17.7499L12.5294 15.5L16.0588 13.25ZM16.0588 23L12.5294 20.75L16.0588 18.5L19.5882 20.75L16.0588 23Z" fill="white"/>
</svg>
