<svg width="32" height="32" viewBox="0 0 32 32" fill="none" xmlns="http://www.w3.org/2000/svg">
<path fill-rule="evenodd" clip-rule="evenodd" d="M2 6C2 3.79086 3.79086 2 6 2H21.25H26C28.2091 2 30 3.79086 30 6V8.53333V26C30 28.2091 28.2091 30 26 30H6C3.79086 30 2 28.2091 2 26V6ZM13.4026 13.799C13.4026 13.5228 13.1788 13.299 12.9026 13.299H8.49999C8.22385 13.299 7.99999 13.5228 7.99999 13.799V23.5002C7.99999 23.7764 8.22385 24.0002 8.49999 24.0002H18.2013C18.4774 24.0002 18.7012 23.7764 18.7012 23.5002V19.0975C18.7012 18.8214 18.4774 18.5975 18.2012 18.5975H13.9026C13.6265 18.5975 13.4026 18.3736 13.4026 18.0975V13.799ZM13.9026 7.99996C13.6265 7.99996 13.4026 8.22382 13.4026 8.49996V12.7986C13.4026 13.0748 13.6265 13.2986 13.9026 13.2986H18.2013C18.4775 13.2986 18.7013 13.0748 18.7013 12.7986V8.49996C18.7013 8.22382 18.4775 7.99996 18.2013 7.99996H13.9026ZM18.7013 13.799C18.7013 13.5228 18.9251 13.299 19.2013 13.299H23.5C23.7761 13.299 24 13.5228 24 13.799V18.0976C24 18.3738 23.7761 18.5976 23.5 18.5976H19.2013C18.9251 18.5976 18.7013 18.3738 18.7013 18.0976V13.799ZM21.9026 7.99996C21.6265 7.99996 21.4026 8.22382 21.4026 8.49996V10.0974C21.4026 10.3735 21.6265 10.5974 21.9026 10.5974H23.5C23.7761 10.5974 24 10.3735 24 10.0974V8.49996C24 8.22382 23.7761 7.99996 23.5 7.99996H21.9026ZM21.4026 21.9026C21.4026 21.6264 21.6265 21.4026 21.9026 21.4026H23.5C23.7761 21.4026 24 21.6264 24 21.9026V23.5C24 23.7761 23.7761 24 23.5 24H21.9026C21.6265 24 21.4026 23.7761 21.4026 23.5V21.9026ZM8.5 8C8.22386 8 8 8.22386 8 8.5V10.0974C8 10.3735 8.22386 10.5974 8.5 10.5974H10.0974C10.3735 10.5974 10.5974 10.3735 10.5974 10.0974V8.5C10.5974 8.22386 10.3735 8 10.0974 8H8.5Z" fill="white"/>
</svg>
