<svg width="32" height="32" viewBox="0 0 32 32" fill="none" xmlns="http://www.w3.org/2000/svg">
<path d="M25.4286 5H6.57143C6.15466 5 5.75496 5.16556 5.46026 5.46026C5.16556 5.75496 5 6.15466 5 6.57143V25.4286C5 25.8453 5.16556 26.245 5.46026 26.5397C5.75496 26.8344 6.15466 27 6.57143 27H25.4286C25.8453 27 26.245 26.8344 26.5397 26.5397C26.8344 26.245 27 25.8453 27 25.4286V6.57143C27 6.15466 26.8344 5.75496 26.5397 5.46026C26.245 5.16556 25.8453 5 25.4286 5ZM22.2189 7.54179C22.6362 7.54179 23.0441 7.66551 23.391 7.89732C23.7379 8.12913 24.0083 8.45862 24.168 8.8441C24.3277 9.22959 24.3694 9.65377 24.288 10.063C24.2066 10.4722 24.0057 10.8481 23.7107 11.1432C23.4156 11.4382 23.0397 11.6391 22.6305 11.7205C22.2213 11.8019 21.7971 11.7602 21.4116 11.6005C21.0261 11.4408 20.6966 11.1704 20.4648 10.8235C20.233 10.4766 20.1093 10.0687 20.1093 9.65143C20.1093 9.09192 20.3316 8.55532 20.7272 8.15969C21.1228 7.76405 21.6594 7.54179 22.2189 7.54179ZM25.1693 23.2954C25.1799 23.4779 25.1543 23.6606 25.094 23.8332C25.0337 24.0058 24.9399 24.1647 24.818 24.3009C24.696 24.4371 24.5484 24.5478 24.3835 24.6267C24.2186 24.7057 24.0397 24.7512 23.8571 24.7607H8.14286C7.77694 24.7375 7.43513 24.5702 7.19218 24.2956C6.94923 24.021 6.82492 23.6614 6.84643 23.2954V23.1893C6.84354 22.9715 6.88687 22.7557 6.97355 22.5559C7.06023 22.3561 7.18829 22.177 7.34929 22.0304L11.2779 18.5929C11.4939 18.3996 11.7737 18.2927 12.0636 18.2927C12.3535 18.2927 12.6332 18.3996 12.8493 18.5929L14.1654 19.7479C14.3814 19.9411 14.6612 20.048 14.9511 20.048C15.241 20.048 15.5207 19.9411 15.7368 19.7479L19.9836 16.0236C20.1997 15.8303 20.4794 15.7235 20.7693 15.7235C21.0592 15.7235 21.3389 15.8303 21.555 16.0236L24.635 18.7264C24.796 18.8731 24.9241 19.0522 25.0107 19.252C25.0974 19.4517 25.1407 19.6676 25.1379 19.8854L25.1693 23.2954Z" fill="#BDBDBD"/>
</svg>
