<svg width="32" height="32" viewBox="0 0 32 32" fill="none" xmlns="http://www.w3.org/2000/svg">
<path fill-rule="evenodd" clip-rule="evenodd" d="M6 2C3.79086 2 2 3.79086 2 6V26C2 28.2091 3.79086 30 6 30H26C28.2091 30 30 28.2091 30 26V8.53333V6C30 3.79086 28.2091 2 26 2H21.25H6ZM12.9964 16C12.9964 14.3474 14.345 12.9987 15.9976 12.9987C17.6502 12.9987 18.9988 14.3474 18.9988 16C18.9988 17.6526 17.6502 19.0013 15.9976 19.0013C14.345 19.0013 12.9964 17.6526 12.9964 16ZM24.9993 15.5454C24.9992 15.6968 24.999 15.8483 24.999 16C24.999 16.1696 24.9992 16.3391 24.9995 16.5084C25.0011 17.5792 25.0027 18.6438 24.9405 19.715C24.8707 21.156 24.5442 22.4326 23.4883 23.4886C22.4346 24.5423 21.1557 24.871 19.7148 24.9408C18.6256 25.0021 17.5434 25.0009 16.4544 24.9997C16.303 24.9995 16.1515 24.9993 15.9998 24.9993C15.8485 24.9993 15.6972 24.9995 15.5461 24.9997C14.4585 25.0009 13.3761 25.0021 12.2849 24.9408C10.8439 24.871 9.56736 24.5445 8.51141 23.4886C7.45772 22.4348 7.129 21.156 7.05921 19.715C6.99793 18.6258 6.99913 17.5418 7.00033 16.4538C7.0005 16.3026 7.00067 16.1514 7.00067 16C7.00067 15.8486 7.0005 15.6974 7.00033 15.5462C6.99913 14.4587 6.99793 13.3762 7.05921 12.285C7.129 10.844 7.45547 9.5674 8.51141 8.51144C9.5651 7.45773 10.8439 7.12901 12.2849 7.05921C13.374 6.99793 14.4562 6.99913 15.5452 7.00033C15.6966 7.0005 15.8481 7.00067 15.9998 7.00067C16.1512 7.00067 16.3025 7.0005 16.4536 7.00033C17.5411 6.99913 18.6236 6.99793 19.7148 7.05921C21.1557 7.12901 22.4323 7.45548 23.4883 8.51144C24.5419 9.56515 24.8707 10.844 24.9405 12.285C25.0017 13.3742 25.0005 14.4564 24.9993 15.5454ZM11.3798 16C11.3798 18.5555 13.4422 20.6179 15.9976 20.6179C18.553 20.6179 20.6154 18.5555 20.6154 16C20.6154 13.4445 18.553 11.3821 15.9976 11.3821C13.4422 11.3821 11.3798 13.4445 11.3798 16ZM19.726 11.193C19.726 11.7897 20.2078 12.2715 20.8045 12.2715C20.9462 12.2717 21.0865 12.2439 21.2174 12.1897C21.3483 12.1356 21.4673 12.0562 21.5675 11.956C21.6677 11.8558 21.7471 11.7369 21.8012 11.6059C21.8554 11.475 21.8831 11.3347 21.8829 11.193C21.8829 10.5963 21.4011 10.1145 20.8045 10.1145C20.2078 10.1145 19.726 10.5963 19.726 11.193Z" fill="white"/>
</svg>
