<svg width="32" height="32" viewBox="0 0 32 32" fill="none" xmlns="http://www.w3.org/2000/svg">
<path fill-rule="evenodd" clip-rule="evenodd" d="M6 2C3.79086 2 2 3.79086 2 6V26C2 28.2091 3.79086 30 6 30H26C28.2091 30 30 28.2091 30 26V8.53333V6C30 3.79086 28.2091 2 26 2H21.25H6ZM8.26458 24H11.5818V13.3177H8.26458V24ZM8 9.92114C8 10.9817 8.8606 11.8606 9.92121 11.8606C10.9818 11.8606 11.8424 10.9817 11.8424 9.92114C11.8424 9.41162 11.64 8.92297 11.2797 8.56269C10.9194 8.20241 10.4307 8 9.92121 8C9.41167 8 8.92301 8.20241 8.56271 8.56269C8.20241 8.92297 8 9.41162 8 9.92114ZM20.6873 24H23.9971H24V18.132C24 15.2606 23.3828 13.0497 20.0256 13.0497C18.4118 13.0497 17.33 13.9354 16.8872 14.7749H16.8409V13.3177H13.6596V24H16.9735V18.7109C16.9735 17.3177 17.238 15.9714 18.9627 15.9714C20.6622 15.9714 20.6873 17.5606 20.6873 18.8V24Z" fill="white"/>
</svg>
