<svg width="32" height="32" viewBox="0 0 32 32" fill="none" xmlns="http://www.w3.org/2000/svg">
<path d="M2 6C2 3.79086 3.79086 2 6 2L21.25 2H26C28.2091 2 30 3.79086 30 6V8.53333V26C30 28.2091 28.2091 30 26 30H6C3.79086 30 2 28.2091 2 26V6Z" fill="#3074AE"/>
<path d="M11.5818 24H8.26458V13.3177H11.5818V24ZM9.92121 11.8606C8.8606 11.8606 8 10.9817 8 9.92114C8 9.41162 8.20241 8.92297 8.56271 8.56269C8.92301 8.20241 9.41167 8 9.92121 8C10.4307 8 10.9194 8.20241 11.2797 8.56269C11.64 8.92297 11.8424 9.41162 11.8424 9.92114C11.8424 10.9817 10.9818 11.8606 9.92121 11.8606ZM23.9971 24H20.6873V18.8C20.6873 17.5606 20.6622 15.9714 18.9627 15.9714C17.238 15.9714 16.9735 17.3177 16.9735 18.7109V24H13.6596V13.3177H16.8409V14.7749H16.8872C17.33 13.9354 18.4118 13.0497 20.0256 13.0497C23.3828 13.0497 24 15.2606 24 18.132V24H23.9971Z" fill="white"/>
</svg>
