<svg width="32" height="32" viewBox="0 0 32 32" fill="none" xmlns="http://www.w3.org/2000/svg">
<path d="M2 6C2 3.79086 3.79086 2 6 2L21.25 2H26C28.2091 2 30 3.79086 30 6V8.53333V26C30 28.2091 28.2091 30 26 30H6C3.79086 30 2 28.2091 2 26V6Z" fill="black"/>
<path fill-rule="evenodd" clip-rule="evenodd" d="M9.89733 12.2441C9.91733 12.0738 9.842 11.9058 9.69533 11.7915L8.202 10.2327V10H12.8407L16.426 16.8097L19.578 10H24V10.2327L22.7227 11.2932C22.6127 11.366 22.558 11.4855 22.5807 11.6038V19.3967C22.558 19.5145 22.6127 19.634 22.7227 19.7068L23.97 20.7673V21H17.6953V20.7673L18.988 19.6808C19.1147 19.5711 19.1147 19.5388 19.1147 19.3708V13.072L15.522 20.9746H15.0367L10.8533 13.072V18.3685C10.8187 18.5908 10.904 18.8154 11.0847 18.9759L12.7653 20.7414V20.9746H8V20.7414L9.68067 18.9759C9.86067 18.8148 9.94067 18.589 9.89733 18.3685V12.2441V12.2441Z" fill="white"/>
</svg>
