<svg width="32" height="32" viewBox="0 0 32 32" fill="none" xmlns="http://www.w3.org/2000/svg">
<path fill-rule="evenodd" clip-rule="evenodd" d="M6 2C3.79086 2 2 3.79086 2 6V26C2 28.2091 3.79086 30 6 30H26C28.2091 30 30 28.2091 30 26V8.53333V6C30 3.79086 28.2091 2 26 2H21.25H6ZM15.1739 21.334L15.2947 21.2845H15.2949C15.3154 21.2624 15.341 21.2845 15.341 21.3341V21.3818L15.0049 22.0573C14.9552 22.129 14.8839 22.1767 14.8839 22.1767C14.2699 22.4808 13.6523 22.7775 13.0313 23.067H13.0089C12.8603 23.1402 12.7126 23.2181 12.571 23.2927C12.3891 23.3885 12.2172 23.4792 12.0658 23.5483L11.9497 23.5959H11.9243L11.9038 23.5703V23.5242L11.9497 23.4015C11.9863 23.2777 12.0855 23.0474 12.1754 22.8387L12.1754 22.8387L12.1755 22.8385C12.207 22.7653 12.2374 22.6947 12.2636 22.6324C12.2839 22.5843 12.3097 22.5349 12.3351 22.4872C12.3351 22.4872 12.3814 22.4153 12.4308 22.3918C13.3678 21.9358 14.4454 21.5767 15.1672 21.3362L15.1672 21.3362L15.1673 21.3362L15.1739 21.334ZM12.9135 19.6248C12.8625 19.7205 12.6491 20.1298 12.5997 20.227C12.5997 20.227 12.3097 20.8018 12.1631 21.0678C11.5882 22.2723 11.0561 23.5242 10.5989 24.7748L10.5784 24.8719C10.5528 24.8959 10.5273 24.9196 10.5033 24.9196H10.0459C10.0256 24.9196 10 24.9196 10 24.8958V24.8463C10 24.8463 10.7214 21.8152 11.4927 19.5292C11.1771 18.2774 10.9637 16.5935 10.9637 16.5935C10.9637 16.5935 10.9637 16.4486 10.9346 16.3769C11.827 15.0762 12.7667 13.8013 13.7767 12.597L13.7852 12.5895C13.8165 12.5615 13.8877 12.4976 14.0205 12.4536C15.3664 12.1173 16.7362 11.877 18.0872 11.6836H18.1827C18.2031 11.6589 18.2288 11.6836 18.2542 11.7079L18.2543 11.708C18.2802 11.7315 18.2802 11.7551 18.2543 11.7799L18.2031 11.8524C16.1631 14.2352 14.3804 16.8344 12.9135 19.6009V19.6248ZM18.9045 12.3582V12.2618C18.9045 12.2398 18.884 12.2177 18.8651 12.1974L18.8583 12.1899C18.8328 12.1899 18.8071 12.1899 18.783 12.2122L18.7355 12.2848C16.3252 15.0526 14.3309 18.1322 12.7464 21.4299L12.6952 21.501V21.5745C12.7052 21.5855 12.7103 21.5911 12.7166 21.5939C12.7231 21.5967 12.7308 21.5967 12.7464 21.5967H12.7667L12.8386 21.5745C14.1844 21.0203 15.5592 20.5392 16.929 20.1298C17.0007 20.1058 17.0756 20.0581 17.1219 19.9866C17.7257 18.8316 19.1175 16.5689 19.1175 16.5689C19.1687 16.4963 19.1467 16.4241 19.1467 16.4241C19.1467 16.4241 18.9045 13.7285 18.9045 12.3582ZM20.3714 8.00239C21.1386 8.02535 21.6506 8.16946 21.9851 8.45945C22.3927 8.79642 22.8243 10.1423 22.5393 11.8992C22.5139 11.9964 22.4881 12.0689 22.3927 12.1899C21.4786 13.2229 20.6355 14.3071 19.8425 15.437L19.7931 15.5089C19.7931 15.5336 19.7726 15.5336 19.7471 15.5336H19.7212C19.701 15.5336 19.6721 15.5089 19.6721 15.4854V15.3892C19.5543 14.0417 19.5084 12.6465 19.5285 11.2495C19.5285 11.1547 19.5084 11.0821 19.4314 11.0088C19.3614 10.9611 19.2643 10.9364 19.1687 10.9364C17.7716 11.0821 16.3559 11.2988 14.9333 11.6115L14.8376 11.6359C14.812 11.6589 14.7864 11.6359 14.7627 11.6117C14.7405 11.587 14.7405 11.564 14.7627 11.5393L14.8376 11.4676C15.7058 10.5049 16.6185 9.54187 17.5791 8.65054C17.6999 8.55588 17.797 8.48435 17.9404 8.43472C18.8786 8.1465 19.701 7.97766 20.3714 8.00239Z" fill="white"/>
</svg>
