<svg width="32" height="32" viewBox="0 0 32 32" fill="none" xmlns="http://www.w3.org/2000/svg">
<path d="M2 6C2 3.79086 3.79086 2 6 2L21.25 2H26C28.2091 2 30 3.79086 30 6V8.53333V26C30 28.2091 28.2091 30 26 30H6C3.79086 30 2 28.2091 2 26V6Z" fill="#4C6767"/>
<path d="M9.98615 14.8551H11.1651C11.1481 13.8182 10.2958 13.1023 9.00036 13.1023C7.72479 13.1023 6.79013 13.8068 6.79581 14.8636C6.79297 15.7216 7.39808 16.2131 8.38104 16.4489L9.01456 16.608C9.64808 16.7614 10.0004 16.9432 10.0032 17.3352C10.0004 17.7614 9.59695 18.0511 8.97195 18.0511C8.33274 18.0511 7.87251 17.7557 7.83274 17.1733H6.6424C6.67365 18.4318 7.57422 19.0824 8.98615 19.0824C10.4066 19.0824 11.2418 18.4034 11.2447 17.3381C11.2418 16.3693 10.5117 15.8551 9.50036 15.6278L8.97763 15.5028C8.47195 15.3864 8.04865 15.1989 8.05717 14.7812C8.05717 14.4062 8.38956 14.1307 8.99183 14.1307C9.5799 14.1307 9.9407 14.3977 9.98615 14.8551ZM13.3817 19H14.5806L15.6857 15.196H15.7312L16.8391 19H18.038L19.7028 13.1818H18.359L17.396 17.233H17.3448L16.2852 13.1818H15.1346L14.0721 17.2244H14.0238L13.0607 13.1818H11.717L13.3817 19ZM22.4237 19C24.1964 19 25.2702 17.9034 25.2702 16.0852C25.2702 14.2727 24.1964 13.1818 22.4407 13.1818H20.3612V19H22.4237ZM21.5913 17.946V14.2358H22.3754C23.4663 14.2358 24.043 14.7926 24.043 16.0852C24.043 17.3835 23.4663 17.946 22.3725 17.946H21.5913Z" fill="white"/>
</svg>
