<svg width="32" height="32" viewBox="0 0 32 32" fill="none" xmlns="http://www.w3.org/2000/svg">
<path fill-rule="evenodd" clip-rule="evenodd" d="M6 2C3.79086 2 2 3.79086 2 6V26C2 28.2091 3.79086 30 6 30H26C28.2091 30 30 28.2091 30 26V8.53333V6C30 3.79086 28.2091 2 26 2H21.25H6ZM23.1626 12.9478C23.1626 12.7951 23.1626 12.6425 23.1507 12.489C23.8702 11.9841 24.4954 11.3665 25 10.6621C24.3244 10.9449 23.6085 11.1294 22.8759 11.2094C23.646 10.7709 24.2227 10.0787 24.4981 9.26225C23.775 9.67397 22.9829 9.9627 22.1569 10.1157C21.4828 9.42626 20.5238 9 19.4613 9C18.9768 8.99977 18.4969 9.09099 18.0492 9.26846C17.6014 9.44592 17.1946 9.70614 16.852 10.0342C16.5094 10.3624 16.2376 10.7519 16.0523 11.1806C15.867 11.6094 15.7717 12.0689 15.7719 12.5329C15.7719 12.8065 15.8067 13.0793 15.8635 13.3424C14.3958 13.2707 12.9602 12.9046 11.6496 12.2677C10.3391 11.6309 9.18281 10.7375 8.25575 9.64553C7.93609 10.17 7.75382 10.7717 7.75382 11.4278C7.75319 12.01 7.90308 12.5834 8.19011 13.0967C8.47715 13.61 8.89241 14.0472 9.39884 14.3695C8.79432 14.3476 8.22369 14.1836 7.73183 13.9213V13.9652C7.73064 14.7814 8.02472 15.5729 8.56407 16.205C9.10343 16.837 9.85476 17.2707 10.6903 17.4323C10.3816 17.5086 10.0492 17.5524 9.7185 17.5524C9.47853 17.5524 9.24954 17.5305 9.02147 17.4981C9.2585 18.1996 9.71841 18.8128 10.337 19.252C10.9555 19.6912 11.7019 19.9344 12.4718 19.9478C11.1654 20.9293 9.55179 21.4611 7.89121 21.4572C7.58254 21.4572 7.29676 21.4458 7 21.4134C8.63403 22.4202 10.5758 23 12.666 23C19.4503 23 23.1626 17.6182 23.1626 12.9478Z" fill="white"/>
</svg>
