<svg width="32" height="32" viewBox="0 0 32 32" fill="none" xmlns="http://www.w3.org/2000/svg">
<path fill-rule="evenodd" clip-rule="evenodd" d="M8 3C6.89543 3 6 3.89543 6 5V27C6 28.1046 6.89543 29 8 29H24C25.1046 29 26 28.1046 26 27V12.2293C26 11.6731 25.7684 11.1421 25.3609 10.7637L17.5755 3.53441C17.2056 3.19091 16.7194 3 16.2146 3H8ZM10.8775 15.4658C10.9966 15.5593 11.0578 15.6967 11.0416 15.8361V20.847C11.0768 21.0274 11.0118 21.2121 10.8655 21.3439L9.5 22.7884V22.9792H13.3718V22.7884L12.0063 21.3439C11.8595 21.2126 11.7902 21.0288 11.8183 20.847V16.5135L15.2173 22.9792H15.6116L18.5307 16.5135V21.667C18.5307 21.8044 18.5307 21.8309 18.4277 21.9206L17.3775 22.8096V23H22.4756V22.8096L21.4622 21.9419C21.3728 21.8824 21.3284 21.7846 21.3468 21.6882V15.3122C21.3284 15.2154 21.3728 15.1176 21.4622 15.0581L22.5 14.1904V14H18.9071L16.3461 19.5716L13.433 14H9.66413V14.1904L10.8775 15.4658Z" fill="white"/>
</svg>
