<svg width="32" height="32" viewBox="0 0 32 32" fill="none" xmlns="http://www.w3.org/2000/svg">
<path d="M13.5649 5C13.2146 5 12.9305 5.28401 12.9305 5.63439V9.44075C12.9305 9.79113 13.2146 10.0751 13.5649 10.0751C13.9154 10.0751 14.1994 9.79113 14.1994 9.44075V5.63439C14.1994 5.28401 13.9154 5 13.5649 5ZM7.9541 7.3195C7.79175 7.31951 7.63194 7.38397 7.508 7.50783C7.26032 7.75559 7.26028 8.16213 7.508 8.40986L9.7484 10.6501C9.99614 10.8978 10.4027 10.8978 10.6505 10.6501C10.8982 10.4023 10.8982 9.99574 10.6505 9.74802L8.41011 7.50783C8.2862 7.38395 8.11646 7.3195 7.9541 7.3195ZM19.1758 7.3195C19.0134 7.3195 18.8437 7.38395 18.7197 7.50783L16.4794 9.74802C16.2316 9.99574 16.2316 10.4023 16.4794 10.6501C16.7271 10.8978 17.1337 10.8978 17.3814 10.6501L19.6218 8.40986C19.8696 8.16213 19.8696 7.75559 19.6218 7.50783C19.4979 7.38397 19.3381 7.31951 19.1758 7.3195ZM13.5976 12.4457C12.8808 12.1856 12.1861 12.8802 12.4462 13.597L16.5019 24.7736C16.7613 25.4885 17.7362 25.5782 18.1216 24.9225L19.0528 23.3384C19.3509 22.8314 20.0474 22.7425 20.4632 23.1582L23.0419 25.7368C23.3924 26.0873 23.9607 26.0878 24.3118 25.7379L25.7356 24.3196C26.0874 23.9691 26.0883 23.3997 25.7375 23.0482L23.1575 20.4621C22.7425 20.0461 22.8318 19.3504 23.3384 19.0526L24.924 18.1206C25.5796 17.7353 25.49 16.7604 24.7751 16.501L13.5976 12.4457ZM5.63444 12.9299C5.28404 12.9299 5 13.214 5 13.5643C5 13.9147 5.28404 14.1987 5.63444 14.1987H9.44108C9.79148 14.1987 10.0755 13.9147 10.0755 13.5643C10.0755 13.214 9.79148 12.9299 9.44108 12.9299H5.63444ZM10.2044 16.2902C10.042 16.2902 9.87223 16.3546 9.7484 16.4786L7.508 18.7187C7.26028 18.9665 7.26032 19.373 7.508 19.6208C7.75581 19.8685 8.16233 19.8685 8.41011 19.6208L10.6505 17.3805C10.8982 17.1329 10.8982 16.7263 10.6505 16.4786C10.5266 16.3546 10.3668 16.2902 10.2044 16.2902Z" fill="black"/>
</svg>
