<svg width="80" height="32" viewBox="0 0 80 32" fill="none" xmlns="http://www.w3.org/2000/svg">
<g filter="url(#filter0_i)">
<rect width="80" height="32" rx="2.66667" fill="#E0E0E0"/>
</g>
<path d="M16.1806 20.899V18.3232H24.2917V11.6566H19.8573V13.3535H22.62V16.6263H16.1806V14.0505L12.6957 17.4747L16.1806 20.899Z" fill="black"/>
<path d="M33.3851 20H40.375V18.197H35.572V15.7273H39.9962V13.9242H35.572V11.4596H40.3548V9.65656H33.3851V20ZM44.2045 15.5152C44.2096 14.5152 44.8056 13.9293 45.6742 13.9293C46.5379 13.9293 47.0581 14.4949 47.053 15.4444V20H49.2045V15.0606C49.2045 13.2525 48.1439 12.1414 46.5278 12.1414C45.3763 12.1414 44.5429 12.7071 44.1944 13.6111H44.1035V12.2424H42.053V20H44.2045V15.5152ZM55.0265 12.2424H53.5669V10.3838H51.4154V12.2424H50.3548V13.8586H51.4154V17.899C51.4053 19.4192 52.4407 20.1717 54.0013 20.1061C54.5568 20.0859 54.9508 19.9747 55.1679 19.904L54.8295 18.303C54.7235 18.3232 54.4962 18.3737 54.2942 18.3737C53.8649 18.3737 53.5669 18.2121 53.5669 17.6162V13.8586H55.0265V12.2424ZM59.8801 20.1515C61.7992 20.1515 63.0922 19.2172 63.3952 17.7778L61.4053 17.6465C61.1881 18.2374 60.6326 18.5455 59.9154 18.5455C58.8396 18.5455 58.1578 17.8333 58.1578 16.6768V16.6717H63.4407V16.0808C63.4407 13.4444 61.8447 12.1414 59.7942 12.1414C57.5114 12.1414 56.0316 13.7626 56.0316 16.1566C56.0316 18.6162 57.4912 20.1515 59.8801 20.1515ZM58.1578 15.3384C58.2033 14.4545 58.875 13.7475 59.8295 13.7475C60.7639 13.7475 61.4104 14.4141 61.4154 15.3384H58.1578ZM64.8447 20H66.9962V15.6111C66.9962 14.6566 67.6932 14 68.6427 14C68.9407 14 69.3498 14.0505 69.5518 14.1162V12.2071C69.3599 12.1616 69.0922 12.1313 68.875 12.1313C68.0063 12.1313 67.2942 12.6364 67.0114 13.596H66.9306V12.2424H64.8447V20Z" fill="black"/>
<defs>
<filter id="filter0_i" x="0" y="0" width="80" height="32" filterUnits="userSpaceOnUse" color-interpolation-filters="sRGB">
<feFlood flood-opacity="0" result="BackgroundImageFix"/>
<feBlend mode="normal" in="SourceGraphic" in2="BackgroundImageFix" result="shape"/>
<feColorMatrix in="SourceAlpha" type="matrix" values="0 0 0 0 0 0 0 0 0 0 0 0 0 0 0 0 0 0 127 0" result="hardAlpha"/>
<feOffset dy="-2.22222"/>
<feComposite in2="hardAlpha" operator="arithmetic" k2="-1" k3="1"/>
<feColorMatrix type="matrix" values="0 0 0 0 0 0 0 0 0 0 0 0 0 0 0 0 0 0 0.3 0"/>
<feBlend mode="normal" in2="shape" result="effect1_innerShadow"/>
</filter>
</defs>
</svg>
